<svg width="512" height="512" viewBox="0 0 512 512" fill="none" xmlns="http://www.w3.org/2000/svg">
<g clip-path="url(#clip0_301_373)">
<path d="M413.405 372.472C393.635 372.472 375.919 369.262 360.257 362.843C344.595 356.425 332.014 346.925 322.514 334.343C313.27 321.762 308.392 306.614 307.879 288.898H377.973C379 298.911 382.466 306.614 388.372 312.006C394.277 317.141 401.98 319.708 411.48 319.708C421.237 319.708 428.939 317.526 434.588 313.161C440.237 308.539 443.061 302.249 443.061 294.289C443.061 287.614 440.75 282.094 436.128 277.729C431.764 273.364 426.243 269.769 419.568 266.945C413.149 264.121 403.905 260.911 391.838 257.317C374.378 251.925 360.128 246.533 349.088 241.141C338.047 235.749 328.547 227.79 320.588 217.263C312.629 206.736 308.649 192.999 308.649 176.053C308.649 150.891 317.764 131.249 335.993 117.127C354.223 102.749 377.973 95.5599 407.243 95.5599C437.027 95.5599 461.034 102.749 479.264 117.127C497.493 131.249 507.25 151.019 508.534 176.438H437.284C436.77 167.709 433.561 160.904 427.655 156.026C421.75 150.891 414.176 148.323 404.933 148.323C396.973 148.323 390.554 150.506 385.676 154.871C380.797 158.979 378.358 165.013 378.358 172.972C378.358 181.702 382.466 188.506 390.683 193.384C398.899 198.263 411.737 203.526 429.196 209.175C446.655 215.08 460.777 220.729 471.561 226.121C482.601 231.513 492.101 239.344 500.061 249.614C508.02 259.884 512 273.107 512 289.283C512 304.688 508.02 318.681 500.061 331.262C492.358 343.843 481.061 353.857 466.169 361.303C451.277 368.749 433.689 372.472 413.405 372.472Z" fill="#3B8BBC"/>
<path d="M204.629 415.992L169.967 369.391C159.697 371.445 149.683 372.472 139.927 372.472C114.508 372.472 91.143 366.566 69.8322 354.756C48.7782 342.945 31.9606 326.512 19.3795 305.458C7.05522 284.148 0.893066 260.269 0.893066 233.823C0.893066 207.377 7.05522 183.627 19.3795 162.573C31.9606 141.519 48.7782 125.087 69.8322 113.276C91.143 101.465 114.508 95.5599 139.927 95.5599C165.346 95.5599 188.582 101.465 209.636 113.276C230.947 125.087 247.636 141.519 259.704 162.573C272.028 183.627 278.19 207.377 278.19 233.823C278.19 256.931 273.44 278.114 263.94 297.371C254.697 316.371 241.731 332.161 225.041 344.742L284.352 415.992H204.629ZM68.2916 233.823C68.2916 257.702 74.7106 276.83 87.5484 291.208C100.643 305.33 118.102 312.391 139.927 312.391C161.494 312.391 178.697 305.202 191.535 290.823C204.629 276.445 211.177 257.445 211.177 233.823C211.177 209.945 204.629 190.945 191.535 176.823C178.697 162.445 161.494 155.256 139.927 155.256C118.102 155.256 100.643 162.317 87.5484 176.438C74.7106 190.56 68.2916 209.688 68.2916 233.823Z" fill="#6C47BB"/>
</g>
<defs>
<clipPath id="clip0_301_373">
<rect width="512" height="512" fill="white"/>
</clipPath>
</defs>
</svg>
